<?xml version="1.0" encoding="UTF-8" standalone="no"?>
<svg
   xmlns:dc="http://purl.org/dc/elements/1.1/"
   xmlns:cc="http://creativecommons.org/ns#"
   xmlns:rdf="http://www.w3.org/1999/02/22-rdf-syntax-ns#"
   xmlns:svg="http://www.w3.org/2000/svg"
   xmlns="http://www.w3.org/2000/svg"
   xmlns:sodipodi="http://sodipodi.sourceforge.net/DTD/sodipodi-0.dtd"
   xmlns:inkscape="http://www.inkscape.org/namespaces/inkscape"
   enable-background="new 0 0 48 48"
   height="48px"
   version="1.1"
   viewBox="0 0 48 48"
   width="48px"
   xml:space="preserve"
   id="svg1051"
   sodipodi:docname="md-cat-blue.svg"
   inkscape:version="1.0.1 (3bc2e813f5, 2020-09-07)"><metadata
     id="metadata1057"><rdf:RDF><cc:Work
         rdf:about=""><dc:format>image/svg+xml</dc:format><dc:type
           rdf:resource="http://purl.org/dc/dcmitype/StillImage" /><dc:title /></cc:Work></rdf:RDF></metadata><defs
     id="defs1055" /><sodipodi:namedview
     pagecolor="#ff15ff"
     bordercolor="#666666"
     borderopacity="1"
     objecttolerance="10"
     gridtolerance="10"
     guidetolerance="10"
     inkscape:pageopacity="0"
     inkscape:pageshadow="2"
     inkscape:window-width="1920"
     inkscape:window-height="1017"
     id="namedview1053"
     showgrid="false"
     inkscape:zoom="15.3125"
     inkscape:cx="11.069388"
     inkscape:cy="24"
     inkscape:window-x="-8"
     inkscape:window-y="-8"
     inkscape:window-maximized="1"
     inkscape:current-layer="svg1051"
     inkscape:document-rotation="0" /><path
     style="fill:#3dc2ff;fill-opacity:1;stroke-width:0.0653061"
     d="M 16.065306,47.532295 C 15.30709,47.462902 13.882203,47.227684 13.191837,47.057948 8.3302818,45.862669 4.2300444,42.598508 1.9471058,38.106122 0.98844167,36.219655 0.35301942,33.960793 0.21411581,31.945519 0.16257942,31.197806 0.16288308,26.944549 0.21521232,16.586626 L 0.28758273,2.2618066 0.49175877,1.8573361 C 1.1609834,0.53160955 2.5092509,0.0692812 3.6768293,0.76515791 3.9783926,0.94488963 4.3758132,1.38689 6.1325945,3.4963926 7.2853819,4.8806329 9.242449,7.2521913 10.481633,8.7665228 11.720816,10.280854 12.764082,11.52107 12.8,11.522558 c 0.03592,0.0015 0.403265,-0.248669 0.816327,-0.555904 2.35327,-1.7503686 4.79575,-2.7846654 7.804081,-3.3047314 0.73791,-0.1275664 1.079664,-0.1467677 2.612245,-0.1467677 1.529628,0 1.874917,0.019326 2.605902,0.1458554 2.968617,0.5138501 5.46148,1.5918857 7.92937,3.4290477 0.370726,0.275978 0.695976,0.501779 0.722779,0.501779 0.0268,0 1.060623,-1.23929 2.297381,-2.753979 5.67054,-6.9448551 6.404467,-7.8184047 6.758759,-8.04454694 0.375024,-0.23937565 1.007055,-0.38924893 1.422396,-0.33729212 0.759549,0.0950154 1.411984,0.57334086 1.84061,1.34942246 l 0.193116,0.3496606 0.02313,14.497959 c 0.01566,9.81683 7.51e-4,14.797796 -0.04619,15.426586 -0.232406,3.113116 -1.572015,6.457596 -3.60405,8.997904 -0.697468,0.871924 -2.311048,2.440343 -3.163611,3.075066 -2.309279,1.71923 -4.795485,2.751724 -7.804082,3.240948 -0.870883,0.141613 -0.979175,0.143479 -8.881632,0.153 -4.4,0.0053 -8.117551,-0.0011 -8.261225,-0.01427 z M 26.545727,31.93866 c 2.168243,-2.104005 2.613457,-2.560421 2.613457,-2.67922 0,-0.01922 -2.321633,-0.03495 -5.159184,-0.03495 -3.138024,0 -5.159184,0.0238 -5.159184,0.06075 0,0.09766 0.486858,0.590863 2.840817,2.877819 1.421862,1.38139 2.260862,2.150993 2.332894,2.13993 0.06187,-0.0095 1.200907,-1.07345 2.5312,-2.36433 z M 16.281639,25.962301 c 0.464342,-0.24959 0.865439,-0.660695 1.155096,-1.183915 0.187142,-0.338042 0.195918,-0.389002 0.195918,-1.13757 0,-0.735441 -0.01146,-0.805448 -0.186229,-1.137458 -0.275598,-0.523558 -0.777098,-1.019497 -1.278348,-1.264168 -0.400109,-0.195302 -0.475928,-0.209551 -1.115015,-0.209551 -0.639087,0 -0.714906,0.01425 -1.115014,0.209551 -0.523906,0.25573 -1.041954,0.78144 -1.288519,1.307576 -0.157768,0.336654 -0.176059,0.450313 -0.176059,1.09405 0,0.636512 0.01924,0.759296 0.168892,1.077551 0.322614,0.686105 0.998315,1.276504 1.652018,1.443465 0.111969,0.0286 0.512152,0.04526 0.889294,0.03703 0.640985,-0.01399 0.712607,-0.02942 1.097966,-0.236559 z m 17.893877,5.88e-4 c 0.487367,-0.262651 0.945801,-0.745573 1.181405,-1.244513 0.150622,-0.318973 0.16961,-0.439757 0.16961,-1.078924 0,-0.682139 -0.01125,-0.742589 -0.215306,-1.157089 -0.27349,-0.555535 -0.682883,-0.96495 -1.238413,-1.238477 -0.407687,-0.200732 -0.481586,-0.215183 -1.091783,-0.213494 -0.527916,0.0015 -0.72756,0.03095 -1.032267,0.152476 -0.494648,0.197279 -1.071299,0.733509 -1.35861,1.263378 -0.21833,0.402653 -0.222805,0.426646 -0.222805,1.194579 0,0.73433 0.01165,0.805808 0.185086,1.135203 0.276795,0.525707 0.712559,0.953341 1.244177,1.220963 0.464589,0.233878 0.464656,0.23389 1.215635,0.210979 0.708812,-0.02162 0.77419,-0.0354 1.163271,-0.245081 z"
     id="path842" /></svg>
