<?xml version="1.0" encoding="UTF-8" standalone="no"?>
<svg
   xmlns:dc="http://purl.org/dc/elements/1.1/"
   xmlns:cc="http://creativecommons.org/ns#"
   xmlns:rdf="http://www.w3.org/1999/02/22-rdf-syntax-ns#"
   xmlns:svg="http://www.w3.org/2000/svg"
   xmlns="http://www.w3.org/2000/svg"
   xmlns:sodipodi="http://sodipodi.sourceforge.net/DTD/sodipodi-0.dtd"
   xmlns:inkscape="http://www.inkscape.org/namespaces/inkscape"
   enable-background="new 0 0 48 48"
   height="48px"
   version="1.1"
   viewBox="0 0 48 48"
   width="48px"
   xml:space="preserve"
   id="svg1051"
   sodipodi:docname="md-cat-blue.svg"
   inkscape:version="1.0.1 (3bc2e813f5, 2020-09-07)"><metadata
     id="metadata1057"><rdf:RDF><cc:Work
         rdf:about=""><dc:format>image/svg+xml</dc:format><dc:type
           rdf:resource="http://purl.org/dc/dcmitype/StillImage" /><dc:title></dc:title></cc:Work></rdf:RDF></metadata><defs
     id="defs1055" /><sodipodi:namedview
     pagecolor="#ff15ff"
     bordercolor="#666666"
     borderopacity="1"
     objecttolerance="10"
     gridtolerance="10"
     guidetolerance="10"
     inkscape:pageopacity="0"
     inkscape:pageshadow="2"
     inkscape:window-width="1920"
     inkscape:window-height="1017"
     id="namedview1053"
     showgrid="false"
     inkscape:zoom="15.3125"
     inkscape:cx="11.069388"
     inkscape:cy="24"
     inkscape:window-x="-8"
     inkscape:window-y="-8"
     inkscape:window-maximized="1"
     inkscape:current-layer="svg1051"
     inkscape:document-rotation="0" /><g
     id="Layer_4"><path
       d="M47.925,30.109l0.021,0.028L47.885,2.726c0-1.31-1.062-2.37-2.371-2.37c-0.727,0-1.346,0.34-1.784,0.85   l-0.021-0.007L35.294,11.54v0.037C32.252,8.976,28.32,7.385,24,7.385c-4.278,0-8.175,1.565-11.211,4.123l0.018-0.048L4.405,1.234   L4.379,1.248C3.943,0.715,3.312,0.355,2.576,0.355c-1.301,0-2.354,1.053-2.354,2.354l-0.17,27.754c0,0.005-0.003,0.014-0.003,0.017   c0,0.009,0,0.018,0,0.021v0.182h0.012c0.105,9.233,7.502,16.702,16.707,16.938v0.023h14.022c9.479,0,17.162-7.686,17.162-17.164   C47.951,30.356,47.925,30.236,47.925,30.109z M15.055,26.213c-1.426,0-2.582-1.155-2.582-2.582c0-1.427,1.156-2.583,2.582-2.583   c1.427,0,2.583,1.155,2.583,2.583C17.638,25.058,16.482,26.213,15.055,26.213z M24,34.312l-5.164-5.025h10.328L24,34.312z    M32.945,26.213c-1.427,0-2.583-1.155-2.583-2.582c0-1.427,1.156-2.583,2.583-2.583c1.426,0,2.582,1.155,2.582,2.583   C35.527,25.058,34.371,26.213,32.945,26.213z"
       fill="#241F20"
       id="path1048" /></g><path
     style="fill:#ffffff;stroke:none;stroke-width:0.391837"
     d="M 16.195918,47.570465 C 13.701563,47.37157 11.572749,46.78901 9.4845394,45.733863 6.8828617,44.419267 4.6460386,42.43952 3.0061164,40 1.5522011,37.837181 0.68544327,35.589339 0.24380815,32.836257 0.13975077,32.18758 0.13235429,31.442578 0.15219039,23.608163 0.16405838,18.920816 0.19344613,12.19102 0.21749652,8.6530612 l 0.043728,-6.432653 0.20579592,-0.4343674 C 1.1534678,0.3371766 2.8668842,-0.04503691 4.0677157,0.98283011 4.2162653,1.1099831 6.2238988,3.512292 8.5291233,6.3212944 10.834348,9.1302968 12.742409,11.45321 12.769259,11.483325 c 0.02685,0.03011 0.309241,-0.150827 0.627535,-0.402092 3.795372,-2.9961058 8.91311,-4.2590137 13.686437,-3.3774126 2.793571,0.5159543 5.540505,1.769487 7.717892,3.5219766 0.247557,0.199248 0.475398,0.346636 0.506315,0.327529 0.03092,-0.01911 1.962455,-2.3775304 4.292308,-5.2409403 2.329853,-2.8634096 4.343255,-5.2879331 4.474227,-5.38782987 0.456355,-0.34807896 0.921297,-0.51466936 1.433461,-0.51361388 0.898174,0.001851 1.629708,0.44879073 2.073125,1.26660315 l 0.223523,0.4122508 0.04049,4.5714286 c 0.02227,2.5142857 0.04431,9.1414045 0.04898,14.7269305 0.0091,10.89001 0.0099,10.860589 -0.32238,12.496668 -0.516033,2.541174 -1.553293,4.829704 -3.155531,6.962117 -0.605331,0.805634 -2.054932,2.295649 -2.880951,2.96127 -2.792163,2.249974 -6.0773,3.520629 -9.729498,3.763262 -1.215406,0.08075 -14.59484,0.07988 -15.609278,-10e-4 z M 26.605901,31.83127 c 1.404306,-1.367904 2.553283,-2.514027 2.553283,-2.546939 0,-0.03575 -2.077367,-0.05984 -5.159184,-0.05984 -3.042242,0 -5.159184,0.0243 -5.159184,0.05922 0,0.07213 5.085481,5.03466 5.159397,5.03466 0.02882,0 1.201382,-1.119194 2.605688,-2.487097 z M 16.163452,25.986475 c 0.539402,-0.255607 0.979587,-0.695303 1.253895,-1.252503 0.200342,-0.406952 0.215306,-0.483068 0.215306,-1.09517 0,-0.629212 -0.01071,-0.679499 -0.246357,-1.15629 -0.798515,-1.615688 -2.90728,-1.963666 -4.181013,-0.689933 -0.891272,0.891273 -1.005409,2.377956 -0.258532,3.367503 0.579501,0.767788 1.213832,1.067821 2.204269,1.042601 0.502771,-0.0128 0.64916,-0.04406 1.012432,-0.216208 z m 17.850426,0.01994 c 0.464536,-0.214279 0.718243,-0.420867 1.039371,-0.846333 0.549274,-0.727739 0.650749,-1.782271 0.253244,-2.631719 -0.929044,-1.985322 -3.72077,-2.012599 -4.692789,-0.04585 -0.235643,0.476791 -0.246357,0.527078 -0.246357,1.15629 0,0.612102 0.01496,0.688218 0.215306,1.09517 0.333195,0.676815 0.813997,1.10223 1.577041,1.395369 0.152737,0.05868 0.444357,0.08298 0.852551,0.07105 0.511177,-0.01494 0.687528,-0.04909 1.001633,-0.193979 z"
     id="path1071" /><path
     style="fill:#3dc2ff;stroke-width:0.0653061;fill-opacity:1"
     d="M 16.065306,47.532295 C 15.30709,47.462902 13.882203,47.227684 13.191837,47.057948 8.3302818,45.862669 4.2300444,42.598508 1.9471058,38.106122 0.98844167,36.219655 0.35301942,33.960793 0.21411581,31.945519 0.16257942,31.197806 0.16288308,26.944549 0.21521232,16.586626 L 0.28758273,2.2618066 0.49175877,1.8573361 C 1.1609834,0.53160955 2.5092509,0.0692812 3.6768293,0.76515791 3.9783926,0.94488963 4.3758132,1.38689 6.1325945,3.4963926 7.2853819,4.8806329 9.242449,7.2521913 10.481633,8.7665228 11.720816,10.280854 12.764082,11.52107 12.8,11.522558 c 0.03592,0.0015 0.403265,-0.248669 0.816327,-0.555904 2.35327,-1.7503686 4.79575,-2.7846654 7.804081,-3.3047314 0.73791,-0.1275664 1.079664,-0.1467677 2.612245,-0.1467677 1.529628,0 1.874917,0.019326 2.605902,0.1458554 2.968617,0.5138501 5.46148,1.5918857 7.92937,3.4290477 0.370726,0.275978 0.695976,0.501779 0.722779,0.501779 0.0268,0 1.060623,-1.23929 2.297381,-2.753979 5.67054,-6.9448551 6.404467,-7.8184047 6.758759,-8.04454694 0.375024,-0.23937565 1.007055,-0.38924893 1.422396,-0.33729212 0.759549,0.0950154 1.411984,0.57334086 1.84061,1.34942246 l 0.193116,0.3496606 0.02313,14.497959 c 0.01566,9.81683 7.51e-4,14.797796 -0.04619,15.426586 -0.232406,3.113116 -1.572015,6.457596 -3.60405,8.997904 -0.697468,0.871924 -2.311048,2.440343 -3.163611,3.075066 -2.309279,1.71923 -4.795485,2.751724 -7.804082,3.240948 -0.870883,0.141613 -0.979175,0.143479 -8.881632,0.153 -4.4,0.0053 -8.117551,-0.0011 -8.261225,-0.01427 z M 26.545727,31.93866 c 2.168243,-2.104005 2.613457,-2.560421 2.613457,-2.67922 0,-0.01922 -2.321633,-0.03495 -5.159184,-0.03495 -3.138024,0 -5.159184,0.0238 -5.159184,0.06075 0,0.09766 0.486858,0.590863 2.840817,2.877819 1.421862,1.38139 2.260862,2.150993 2.332894,2.13993 0.06187,-0.0095 1.200907,-1.07345 2.5312,-2.36433 z M 16.281639,25.962301 c 0.464342,-0.24959 0.865439,-0.660695 1.155096,-1.183915 0.187142,-0.338042 0.195918,-0.389002 0.195918,-1.13757 0,-0.735441 -0.01146,-0.805448 -0.186229,-1.137458 -0.275598,-0.523558 -0.777098,-1.019497 -1.278348,-1.264168 -0.400109,-0.195302 -0.475928,-0.209551 -1.115015,-0.209551 -0.639087,0 -0.714906,0.01425 -1.115014,0.209551 -0.523906,0.25573 -1.041954,0.78144 -1.288519,1.307576 -0.157768,0.336654 -0.176059,0.450313 -0.176059,1.09405 0,0.636512 0.01924,0.759296 0.168892,1.077551 0.322614,0.686105 0.998315,1.276504 1.652018,1.443465 0.111969,0.0286 0.512152,0.04526 0.889294,0.03703 0.640985,-0.01399 0.712607,-0.02942 1.097966,-0.236559 z m 17.893877,5.88e-4 c 0.487367,-0.262651 0.945801,-0.745573 1.181405,-1.244513 0.150622,-0.318973 0.16961,-0.439757 0.16961,-1.078924 0,-0.682139 -0.01125,-0.742589 -0.215306,-1.157089 -0.27349,-0.555535 -0.682883,-0.96495 -1.238413,-1.238477 -0.407687,-0.200732 -0.481586,-0.215183 -1.091783,-0.213494 -0.527916,0.0015 -0.72756,0.03095 -1.032267,0.152476 -0.494648,0.197279 -1.071299,0.733509 -1.35861,1.263378 -0.21833,0.402653 -0.222805,0.426646 -0.222805,1.194579 0,0.73433 0.01165,0.805808 0.185086,1.135203 0.276795,0.525707 0.712559,0.953341 1.244177,1.220963 0.464589,0.233878 0.464656,0.23389 1.215635,0.210979 0.708812,-0.02162 0.77419,-0.0354 1.163271,-0.245081 z"
     id="path842" /></svg>
