<?xml version="1.0" encoding="UTF-8" standalone="no"?>
<svg
   xmlns:dc="http://purl.org/dc/elements/1.1/"
   xmlns:cc="http://creativecommons.org/ns#"
   xmlns:rdf="http://www.w3.org/1999/02/22-rdf-syntax-ns#"
   xmlns:svg="http://www.w3.org/2000/svg"
   xmlns="http://www.w3.org/2000/svg"
   xmlns:sodipodi="http://sodipodi.sourceforge.net/DTD/sodipodi-0.dtd"
   xmlns:inkscape="http://www.inkscape.org/namespaces/inkscape"
   id="cat2"
   style="enable-background:new 0 0 300 300;"
   version="1.1"
   viewBox="0 0 300 300"
   xml:space="preserve"
   sodipodi:docname="md-cat-outline-white.svg"
   inkscape:version="1.0.1 (3bc2e813f5, 2020-09-07)"><metadata
     id="metadata75"><rdf:RDF><cc:Work
         rdf:about=""><dc:format>image/svg+xml</dc:format><dc:type
           rdf:resource="http://purl.org/dc/dcmitype/StillImage" /><dc:title /></cc:Work></rdf:RDF></metadata><defs
     id="defs73" /><sodipodi:namedview
     pagecolor="#ff79ff"
     bordercolor="#666666"
     borderopacity="1"
     objecttolerance="10"
     gridtolerance="10"
     guidetolerance="10"
     inkscape:pageopacity="0.56078431"
     inkscape:pageshadow="2"
     inkscape:window-width="1920"
     inkscape:window-height="1017"
     id="namedview71"
     showgrid="false"
     inkscape:zoom="2.0034692"
     inkscape:cx="98.732775"
     inkscape:cy="120.29226"
     inkscape:window-x="-8"
     inkscape:window-y="-8"
     inkscape:window-maximized="1"
     inkscape:current-layer="cat2"
     inkscape:document-rotation="0" /><g
     id="g40" /><g
     id="g42" /><g
     id="g44" /><g
     id="g46" /><g
     id="g48" /><g
     id="g50" /><g
     id="g52" /><g
     id="g54" /><g
     id="g56" /><g
     id="g58" /><g
     id="g60" /><g
     id="g62" /><g
     id="g64" /><g
     id="g66" /><g
     id="g68" /><path
     style="fill:#ffffff;stroke:#ffffff;stroke-width:2.99481;stroke-miterlimit:4;stroke-dasharray:none"
     d="M 141.65832,271.22686 C 110.49379,267.9501 82.846751,251.15811 65.319396,224.86087 61.817247,219.60641 56.697283,209.49839 54.764655,204.02332 l -1.453092,-4.11656 -11.144131,-0.001 -11.14413,-10e-4 -1.509965,-1.50996 c -1.210378,-1.21038 -1.446116,-1.77981 -1.188157,-2.87002 0.694988,-2.93723 1.384522,-3.10703 12.617435,-3.10703 H 51.17368 l -0.267778,-1.12305 c -0.147278,-0.61768 -0.535141,-2.51352 -0.861917,-4.21299 l -0.594139,-3.08993 -9.468695,-0.15444 -9.468694,-0.15444 -1.240065,-1.44286 c -1.351435,-1.57245 -1.283139,-3.27869 0.196977,-4.9211 0.695303,-0.77154 1.855834,-0.87348 9.943797,-0.87348 h 9.156622 v -1.92688 c 0,-1.05977 -0.140896,-2.95482 -0.313103,-4.21121 l -0.313104,-2.28434 -8.715631,-0.15621 -8.715631,-0.15621 -1.239996,-1.44286 c -1.351362,-1.57245 -1.283041,-3.27873 0.197046,-4.9211 0.694955,-0.77116 1.853065,-0.87349 9.885649,-0.87349 h 9.098475 l 0.3409,-3.36915 c 1.515764,-14.98049 7.85646,-32.77783 16.181818,-45.41982 l 3.039592,-4.6156 0.134893,-34.178409 0.134893,-34.178408 1.139885,-1.13673 c 1.070866,-1.067902 1.524194,-1.134579 7.487013,-1.101221 15.922194,0.08907 30.796703,6.086407 42.725753,17.226827 3.21125,2.998945 8.69654,9.570309 10.13669,12.14372 0.35109,0.627352 0.88577,0.631213 4.0452,0.02921 6.38168,-1.215976 16.02345,-1.869145 22.43224,-1.519644 5.53999,0.302121 14.6822,1.424183 16.62695,2.040692 0.51925,0.164612 1.45782,-0.724609 2.8531,-2.703114 11.65931,-16.532897 29.35918,-26.253454 49.79866,-27.348833 6.29233,-0.337215 7.7569,-0.107449 9.20195,1.44363 0.99609,1.069174 1.01208,1.622054 1.01208,34.981208 v 33.894862 l 2.86163,4.31957 c 8.45637,12.76472 14.32459,28.75812 16.2865,44.38766 l 0.6093,4.85399 10.93864,0.1348 c 10.41633,0.12837 10.99328,0.18615 12.08319,1.21006 1.87906,1.76529 1.45839,4.44827 -0.88768,5.66148 -1.10496,0.57139 -3.64328,0.73024 -11.66917,0.73024 h -10.25704 v 3.45311 c 0,1.89922 -0.13633,3.8084 -0.30297,4.24264 -0.27072,0.70549 0.88889,0.78953 10.89395,0.78953 11.05864,0 11.21031,0.0143 12.28219,1.15522 1.6639,1.77114 1.38459,4.33714 -0.59564,5.47217 -0.71143,0.40778 -4.78115,0.6928 -12.27434,0.85962 l -11.21002,0.24957 -0.82247,4.11785 -0.82248,4.11786 h 12.31984 c 12.23241,0 12.32753,0.008 13.40511,1.15522 1.6639,1.77114 1.38459,4.33715 -0.59564,5.47218 -0.73071,0.41883 -5.18181,0.68827 -14.20037,0.85961 l -13.13604,0.24957 -1.8996,5.03582 c -6.12565,16.23903 -17.45985,31.8701 -31.34107,43.22269 -20.85927,17.05949 -49.22835,25.60348 -75.75261,22.81462 z m 19.28856,-7.44643 c 32.54036,-3.22344 60.60038,-21.8462 75.94015,-50.39964 1.98799,-3.70044 5.84596,-12.41083 5.84596,-13.1988 0,-0.15281 -3.38031,-0.27783 -7.5118,-0.27783 -5.61652,0 -7.86809,-0.18424 -8.92393,-0.73023 -2.29212,-1.18531 -2.68032,-3.30257 -0.99774,-5.44163 l 1.0345,-1.31515 h 9.40731 9.40732 l 0.78871,-3.46769 c 1.25383,-5.51268 2.11499,-5.01759 -8.72766,-5.01759 -6.27749,0 -9.88742,-0.19763 -10.6066,-0.58066 -2.48622,-1.32417 -2.98322,-3.45588 -1.30358,-5.5912 l 1.0345,-1.31515 h 10.63694 c 12.23264,0 11.23293,0.47699 11.24569,-5.3657 l 0.007,-3.11958 h -9.95019 c -5.67642,0 -10.53624,-0.22282 -11.31463,-0.51876 -2.74111,-1.04217 -3.43265,-3.39844 -1.65913,-5.65311 l 1.0345,-1.31515 h 10.69516 10.69515 v -1.69737 c 0,-2.84122 -1.87039,-12.7448 -3.35584,-17.76886 l -1.40198,-4.74178 h -12.22077 -12.22076 l -0.13335,12.60314 -0.13335,12.60314 H 190.5649 162.87152 v -12.72792 -12.72792 h -10.73139 -10.73138 v 12.72792 12.72792 H 113.7068 86.004853 V 148.74291 136.01499 H 73.566612 61.128371 l -0.764706,2.37088 c -1.680951,5.21161 -3.388538,13.2413 -4.086602,19.21667 l -0.335286,2.87002 h 12.785435 c 12.119923,0 12.837393,0.052 13.783702,0.99827 1.344862,1.34486 1.318563,4.04737 -0.05146,5.28833 -0.965974,0.87499 -2.085592,0.96272 -14.033358,1.0996 l -12.983632,0.14874 0.307167,1.53583 c 0.168942,0.84471 0.307166,2.74311 0.307166,4.21868 v 2.68285 h 12.727922 c 12.062412,0 12.780122,0.0522 13.726191,0.99827 1.344822,1.34482 1.318563,4.04734 -0.05139,5.28833 -0.961497,0.87099 -2.073843,0.96342 -13.244998,1.10054 l -12.195347,0.1497 0.333714,1.77885 c 0.183543,0.97837 0.599064,2.82019 0.923379,4.09294 l 0.589664,2.31409 11.614009,0.24957 c 10.760963,0.23124 11.665983,0.32073 12.321621,1.21845 1.053762,1.44284 0.884261,3.95723 -0.341653,5.06815 -0.938028,0.85004 -2.126481,0.97731 -11.210191,1.20041 l -10.160928,0.24957 2.155936,5.07107 c 16.535507,38.89393 56.201244,62.66671 97.702144,58.55563 z M 135.91827,143.75157 V 131.52278 H 113.7068 91.495329 v 12.22879 12.22878 h 22.211471 22.21147 z m 76.86667,0 V 131.52278 H 190.57347 168.362 v 12.22879 12.22878 h 22.21147 22.21147 z M 86.004853,128.27841 v -2.24611 h 27.701947 27.70195 v 2.24611 2.2461 h 10.73138 10.73139 v -2.2461 -2.24611 h 27.70195 27.70195 v 2.24611 2.2461 h 11.21791 11.21792 l -1.72166,-3.77793 c -4.29523,-9.42527 -10.55397,-18.11525 -19.4145,-26.956198 -7.88518,-7.867747 -14.88213,-12.953546 -24.31972,-17.677021 -41.99089,-21.016266 -92.40914,-9.101232 -120.461614,28.467949 -4.418919,5.91802 -9.869816,15.27013 -10.969368,18.82015 l -0.347844,1.12305 h 11.264154 11.264155 z m 3.713214,-43.123478 c 8.559258,-6.378656 18.495263,-11.712476 27.963903,-15.01151 2.46086,-0.857407 4.56586,-1.650492 4.67778,-1.762411 0.34985,-0.349848 -4.66351,-6.356941 -7.7254,-9.256712 C 108.6583,53.46467 100.98347,48.969178 92.994808,46.449055 88.675516,45.086479 80.776507,43.683419 77.394788,43.678102 l -1.871753,-0.0029 v 27.002077 27.002077 l 4.836266,-4.577026 c 2.659941,-2.517368 6.871386,-6.09368 9.358766,-7.947356 z M 228.01454,43.764359 c -0.53639,-0.536389 -11.43724,0.999595 -15.54763,2.190739 -11.35292,3.289946 -21.61404,10.211457 -28.77732,19.411373 l -2.31545,2.973779 4.44397,1.586711 c 14.44529,5.15765 27.15232,12.950173 37.44518,22.963065 l 4.74524,4.616173 0.12916,-26.744766 c 0.071,-14.709622 0.0156,-26.858305 -0.12315,-26.997074 z"
     id="path1015" /><path
     style="fill:#ffffff;stroke:#ffffff;stroke-width:2.99481;stroke-miterlimit:4;stroke-dasharray:none"
     d="m 131.67563,223.17081 c -8.24758,-2.00568 -14.5295,-9.19541 -15.10882,-17.29225 -0.21028,-2.9389 -0.10878,-3.48472 0.82091,-4.4144 1.28985,-1.28985 3.55894,-1.37454 5.02031,-0.18738 0.76508,0.62153 1.1993,1.75408 1.50535,3.9263 0.51077,3.62535 1.35606,5.38499 3.60181,7.49791 4.43264,4.17046 10.37152,4.69096 15.41811,1.35129 1.77831,-1.17683 4.46506,-4.56156 4.46506,-5.62503 0,-0.2655 -4.2676,-6.46516 -9.48355,-13.77703 -9.63435,-13.5057 -10.36748,-14.89667 -8.85963,-16.80953 0.34315,-0.43533 3.6116,-2.72436 7.26322,-5.08674 l 6.6393,-4.29524 h 9.1703 9.17029 l 6.74318,4.46327 c 6.88378,4.55634 8.10516,5.78955 7.6135,7.68722 -0.15341,0.59211 -4.52182,7.00917 -9.70758,14.26013 -6.1697,8.62676 -9.3486,13.48965 -9.19707,14.0691 0.38786,1.48316 3.62284,4.91983 5.56263,5.90944 6.73098,3.43389 15.16416,0.0101 17.24651,-7.00196 0.42997,-1.44785 0.78176,-3.22637 0.78176,-3.95226 0,-3.33685 4.61133,-4.62646 6.66482,-1.86389 0.94284,1.26839 0.97916,1.63564 0.46105,4.66038 -1.49522,8.729 -7.60247,15.01087 -16.28018,16.74563 -5.59054,1.11761 -12.10411,-0.96842 -16.83166,-5.39049 l -2.3941,-2.2394 -1.981,1.981 c -2.61933,2.61932 -5.66218,4.35374 -9.30019,5.30107 -3.46607,0.90256 -5.55456,0.92178 -9.00433,0.0829 z m 27.92579,-32.21512 c 3.72022,-5.19619 6.76114,-9.63224 6.75759,-9.8579 -0.004,-0.22566 -1.64652,-1.47719 -3.65105,-2.78118 l -3.64462,-2.37089 h -7.01628 -7.01629 l -3.82984,2.50015 c -2.72135,1.77651 -3.71504,2.69149 -3.4332,3.16123 0.21816,0.36359 3.31013,4.74148 6.87105,9.72864 4.11156,5.75833 6.78903,9.06756 7.3365,9.06756 0.5481,0 3.32571,-3.44104 7.62614,-9.44761 z"
     id="path1017" /></svg>
